<svg width="811" height="811" viewBox="0 0 811 811" fill="none" xmlns="http://www.w3.org/2000/svg">
<path d="M705.281 52.5506C734.395 52.5506 757.769 76.06 757.769 104.433C757.769 133.212 733.98 156.316 705.259 156.316C676.145 156.316 652.749 132.807 652.749 104.433C652.749 76.06 676.145 52.5506 705.259 52.5506M221.146 348.849H26.6886C12.328 348.849 0.433594 360.604 0.433594 374.791C0.433594 388.977 12.328 400.732 26.6886 400.732H221.146C285.965 400.732 338.889 350.065 341.77 286.428H454.603C466.083 315.612 494.39 336.689 528.436 336.689C571.933 336.689 607.223 301.831 607.223 258.865C607.223 215.9 571.933 181.041 528.436 181.041C493.56 181.041 463.617 203.74 453.36 234.545H342.6V198.065C342.6 160.775 373.372 130.375 411.107 130.375H603.927C615.822 175.367 656.852 208.199 705.674 208.199C763.945 208.199 810.694 161.585 810.694 104.433C810.694 47.2813 763.116 0.667969 705.281 0.667969C656.437 0.667969 615.407 33.9053 603.513 78.492H410.692C343.822 78.492 289.675 131.996 289.675 198.065V234.545H26.6886C12.328 234.545 0.433594 246.3 0.433594 260.487C0.433594 274.673 12.328 286.428 26.6886 286.428H289.239C288.073 303.323 280.399 319.158 267.763 330.742C255.127 342.325 238.469 348.796 221.146 348.849ZM26.6886 525.575H359.819C371.321 554.759 399.627 575.836 433.674 575.836C477.148 575.836 512.46 540.977 512.46 498.012C512.46 455.047 477.148 420.188 433.674 420.188C398.798 420.188 368.855 442.887 358.597 473.692H26.6886C12.328 473.692 0.433594 485.447 0.433594 499.633C0.433594 513.82 12.328 525.575 26.6886 525.575ZM705.281 759.452C676.167 759.452 652.771 735.943 652.771 707.569C652.771 679.196 676.56 655.687 705.281 655.687C734.417 655.687 757.791 679.196 757.791 707.569C757.791 735.943 734.002 759.452 705.281 759.452ZM705.281 603.399C656.459 603.399 615.429 636.636 603.535 681.223H546.114C510.824 681.223 475.119 673.116 443.124 658.119L354.931 615.964C315.816 597.336 272.884 587.634 229.374 587.591H26.6886C12.328 587.591 0.433594 599.345 0.433594 613.532C0.433594 627.719 12.328 639.473 26.6886 639.473H229.766C265.057 639.473 300.74 647.58 332.757 662.577L420.95 704.732C460.058 723.357 502.982 733.058 546.485 733.105H603.927C615.822 778.097 656.852 810.929 705.674 810.929C763.945 810.929 810.694 764.316 810.694 707.164C810.279 650.012 763.116 603.399 705.281 603.399Z" fill="white"/>
</svg>
