<svg width="1030" height="1030" viewBox="0 0 1030 1030" fill="none" xmlns="http://www.w3.org/2000/svg">
<rect width="1029.75" height="1029.75" rx="250" fill="#0A0F1C"/>
<path fill-rule="evenodd" clip-rule="evenodd" d="M872.941 213.511C872.941 185.138 849.567 161.629 820.453 161.629H820.431C791.317 161.629 767.921 185.138 767.921 213.511C767.921 241.885 791.317 265.394 820.431 265.394C849.152 265.394 872.941 242.29 872.941 213.511ZM141.86 457.927H336.318C353.641 457.874 370.299 451.403 382.935 439.82C395.571 428.236 403.245 412.401 404.41 395.506H141.86C127.5 395.506 115.605 383.751 115.605 369.565C115.605 355.378 127.5 343.623 141.86 343.623H404.847V307.143C404.847 241.074 458.994 187.57 525.864 187.57H718.685C730.579 142.983 771.609 109.746 820.453 109.746C878.288 109.746 925.865 156.359 925.865 213.511C925.865 270.663 879.117 317.277 820.845 317.277C772.024 317.277 730.994 284.445 719.099 239.453H526.279C488.544 239.453 457.771 269.853 457.771 307.143V343.623H568.531C578.789 312.818 608.732 290.119 643.608 290.119C687.104 290.119 722.395 324.978 722.395 367.943C722.395 410.909 687.104 445.767 643.608 445.767C609.562 445.767 581.255 424.69 569.775 395.506H456.942C454.061 459.143 401.136 509.81 336.318 509.81H141.86C127.5 509.81 115.605 498.055 115.605 483.869C115.605 469.682 127.5 457.927 141.86 457.927ZM767.943 816.647C767.943 845.021 791.339 868.53 820.453 868.53C849.174 868.53 872.963 845.021 872.963 816.647C872.963 788.274 849.588 764.765 820.453 764.765C791.731 764.765 767.943 788.274 767.943 816.647ZM718.706 790.301C730.601 745.714 771.631 712.477 820.453 712.477C878.288 712.477 925.451 759.09 925.865 816.242C925.865 873.394 879.117 920.007 820.845 920.007C772.024 920.007 730.994 887.175 719.099 842.183H661.657C618.154 842.136 575.23 832.435 536.122 813.81L447.929 771.655C415.912 756.658 380.229 748.551 344.938 748.551H141.86C127.5 748.551 115.605 736.797 115.605 722.61C115.605 708.423 127.5 696.669 141.86 696.669H344.545C388.056 696.712 430.988 706.414 470.102 725.042L558.296 767.197C590.29 782.194 625.996 790.301 661.286 790.301H718.706Z" fill="#EC4899"/>
<path d="M141.86 634.653H474.991C486.493 663.837 514.799 684.914 548.846 684.914C592.32 684.914 627.632 650.055 627.632 607.09C627.632 564.125 592.32 529.266 548.846 529.266C513.97 529.266 484.026 551.965 473.769 582.77H141.86C127.5 582.77 115.605 594.525 115.605 608.711C115.605 622.898 127.5 634.653 141.86 634.653Z" fill="#EC4899"/>
<path fill-rule="evenodd" clip-rule="evenodd" d="M872.941 213.511C872.941 185.138 849.567 161.629 820.453 161.629H820.431C791.317 161.629 767.921 185.138 767.921 213.511C767.921 241.885 791.317 265.394 820.431 265.394C849.152 265.394 872.941 242.29 872.941 213.511ZM141.86 457.927H336.318C353.641 457.874 370.299 451.403 382.935 439.82C395.571 428.236 403.245 412.401 404.41 395.506H141.86C127.5 395.506 115.605 383.751 115.605 369.565C115.605 355.378 127.5 343.623 141.86 343.623H404.847V307.143C404.847 241.074 458.994 187.57 525.864 187.57H718.685C730.579 142.983 771.609 109.746 820.453 109.746C878.288 109.746 925.865 156.359 925.865 213.511C925.865 270.663 879.117 317.277 820.845 317.277C772.024 317.277 730.994 284.445 719.099 239.453H526.279C488.544 239.453 457.771 269.853 457.771 307.143V343.623H568.531C578.789 312.818 608.732 290.119 643.608 290.119C687.104 290.119 722.395 324.978 722.395 367.943C722.395 410.909 687.104 445.767 643.608 445.767C609.562 445.767 581.255 424.69 569.775 395.506H456.942C454.061 459.143 401.136 509.81 336.318 509.81H141.86C127.5 509.81 115.605 498.055 115.605 483.869C115.605 469.682 127.5 457.927 141.86 457.927ZM767.943 816.647C767.943 845.021 791.339 868.53 820.453 868.53C849.174 868.53 872.963 845.021 872.963 816.647C872.963 788.274 849.588 764.765 820.453 764.765C791.731 764.765 767.943 788.274 767.943 816.647ZM718.706 790.301C730.601 745.714 771.631 712.477 820.453 712.477C878.288 712.477 925.451 759.09 925.865 816.242C925.865 873.394 879.117 920.007 820.845 920.007C772.024 920.007 730.994 887.175 719.099 842.183H661.657C618.154 842.136 575.23 832.435 536.122 813.81L447.929 771.655C415.912 756.658 380.229 748.551 344.938 748.551H141.86C127.5 748.551 115.605 736.797 115.605 722.61C115.605 708.423 127.5 696.669 141.86 696.669H344.545C388.056 696.712 430.988 706.414 470.102 725.042L558.296 767.197C590.29 782.194 625.996 790.301 661.286 790.301H718.706Z" fill="#00D9FF"/>
</svg>
